# xmcd CD database file
#
# Track frame offsets:
#	150
#	13245
#	58325
#	108949
#	170855
#
# Disc length: 2589 seconds
#
# Revision: 0
# Processed by: cddbd v1.5.2PL0 Copyright (c) Steve Scherf et al.
# Submitted via: CDex 1.70beta2
#
DISCID=440a1b05
DTITLE=Thelonious Monk - Live At The Five Spot (Vol. 1)
DYEAR=1957
DGENRE=Jazz
TTITLE0=Crepuscule With Nellie (live)
TTITLE1=Twinkle Twinkle (live)
TTITLE2=In Walked Bud (live)
TTITLE3=I Mean You (live)
TTITLE4=Epistrophy (live)
EXTD=YEAR: 1957
EXTT0=
EXTT1=
EXTT2=
EXTT3=
EXTT4=
PLAYORDER=
